<?xml version="1.0" encoding="UTF-8" ?>
<svg version="1.1" width="320" height="32" xmlns="http://www.w3.org/2000/svg" shape-rendering="crispEdges">
<rect x="7" y="3" width="18" height="2" fill="#000000" />
<rect x="39" y="3" width="14" height="2" fill="#000000" />
<rect x="71" y="3" width="18" height="2" fill="#000000" />
<rect x="103" y="3" width="18" height="2" fill="#000000" />
<rect x="135" y="3" width="18" height="2" fill="#000000" />
<rect x="167" y="3" width="18" height="2" fill="#000000" />
<rect x="199" y="3" width="18" height="2" fill="#000000" />
<rect x="231" y="3" width="18" height="2" fill="#000000" />
<rect x="263" y="3" width="18" height="2" fill="#000000" />
<rect x="295" y="3" width="18" height="2" fill="#000000" />
<rect x="7" y="5" width="2" height="24" fill="#000000" />
<rect x="9" y="5" width="14" height="6" fill="#FFFFFF" />
<rect x="23" y="5" width="2" height="24" fill="#000000" />
<rect x="39" y="5" width="2" height="6" fill="#000000" />
<rect x="41" y="5" width="10" height="4" fill="#FFFFFF" />
<rect x="51" y="5" width="2" height="24" fill="#000000" />
<rect x="71" y="5" width="2" height="24" fill="#000000" />
<rect x="73" y="5" width="14" height="7" fill="#FFFFFF" />
<rect x="87" y="5" width="2" height="24" fill="#000000" />
<rect x="103" y="5" width="2" height="24" fill="#000000" />
<rect x="105" y="5" width="14" height="7" fill="#FFFFFF" />
<rect x="119" y="5" width="2" height="24" fill="#000000" />
<rect x="135" y="5" width="2" height="16" fill="#000000" />
<rect x="137" y="5" width="6" height="14" fill="#FFFFFF" />
<rect x="143" y="5" width="2" height="8" fill="#000000" />
<rect x="145" y="5" width="6" height="22" fill="#FFFFFF" />
<rect x="151" y="5" width="2" height="24" fill="#000000" />
<rect x="167" y="5" width="2" height="24" fill="#000000" />
<rect x="169" y="5" width="14" height="6" fill="#FFFFFF" />
<rect x="183" y="5" width="2" height="24" fill="#000000" />
<rect x="199" y="5" width="2" height="24" fill="#000000" />
<rect x="201" y="5" width="14" height="5" fill="#FFFFFF" />
<rect x="215" y="5" width="2" height="24" fill="#000000" />
<rect x="231" y="5" width="2" height="11" fill="#000000" />
<rect x="233" y="5" width="14" height="5" fill="#FFFFFF" />
<rect x="247" y="5" width="2" height="24" fill="#000000" />
<rect x="263" y="5" width="2" height="24" fill="#000000" />
<rect x="265" y="5" width="14" height="5" fill="#FFFFFF" />
<rect x="279" y="5" width="2" height="24" fill="#000000" />
<rect x="295" y="5" width="2" height="24" fill="#000000" />
<rect x="297" y="5" width="14" height="6" fill="#FFFFFF" />
<rect x="311" y="5" width="2" height="24" fill="#000000" />
<rect x="41" y="9" width="4" height="2" fill="#000000" />
<rect x="45" y="9" width="6" height="18" fill="#FFFFFF" />
<rect x="201" y="10" width="7" height="9" fill="#FFFFFF" />
<rect x="208" y="10" width="7" height="2" fill="#000000" />
<rect x="233" y="10" width="6" height="4" fill="#FFFFFF" />
<rect x="239" y="10" width="2" height="19" fill="#000000" />
<rect x="241" y="10" width="6" height="17" fill="#FFFFFF" />
<rect x="265" y="10" width="6" height="17" fill="#FFFFFF" />
<rect x="271" y="10" width="2" height="2" fill="#000000" />
<rect x="273" y="10" width="6" height="17" fill="#FFFFFF" />
<rect x="9" y="11" width="6" height="16" fill="#FFFFFF" />
<rect x="15" y="11" width="2" height="9" fill="#000000" />
<rect x="17" y="11" width="6" height="16" fill="#FFFFFF" />
<rect x="43" y="11" width="2" height="18" fill="#000000" />
<rect x="169" y="11" width="7" height="8" fill="#FFFFFF" />
<rect x="176" y="11" width="7" height="2" fill="#000000" />
<rect x="297" y="11" width="6" height="9" fill="#FFFFFF" />
<rect x="303" y="11" width="2" height="2" fill="#000000" />
<rect x="305" y="11" width="6" height="16" fill="#FFFFFF" />
<rect x="73" y="12" width="7" height="2" fill="#000000" />
<rect x="80" y="12" width="7" height="7" fill="#FFFFFF" />
<rect x="105" y="12" width="7" height="2" fill="#000000" />
<rect x="112" y="12" width="7" height="15" fill="#FFFFFF" />
<rect x="208" y="12" width="7" height="7" fill="#FFFFFF" />
<rect x="271" y="12" width="2" height="8" fill="#FFFFFF" />
<rect x="143" y="13" width="2" height="6" fill="#FFFFFF" />
<rect x="176" y="13" width="7" height="14" fill="#FFFFFF" />
<rect x="303" y="13" width="2" height="7" fill="#FFFFFF" />
<rect x="73" y="14" width="7" height="13" fill="#FFFFFF" />
<rect x="105" y="14" width="7" height="5" fill="#FFFFFF" />
<rect x="233" y="14" width="6" height="2" fill="#000000" />
<rect x="80" y="19" width="7" height="2" fill="#000000" />
<rect x="105" y="19" width="7" height="2" fill="#000000" />
<rect x="137" y="19" width="8" height="2" fill="#000000" />
<rect x="169" y="19" width="7" height="2" fill="#000000" />
<rect x="201" y="19" width="6" height="8" fill="#FFFFFF" />
<rect x="207" y="19" width="2" height="2" fill="#000000" />
<rect x="209" y="19" width="6" height="8" fill="#FFFFFF" />
<rect x="15" y="20" width="2" height="7" fill="#FFFFFF" />
<rect x="271" y="20" width="2" height="2" fill="#000000" />
<rect x="297" y="20" width="7" height="2" fill="#000000" />
<rect x="304" y="20" width="1" height="7" fill="#FFFFFF" />
<rect x="80" y="21" width="7" height="6" fill="#FFFFFF" />
<rect x="105" y="21" width="7" height="6" fill="#FFFFFF" />
<rect x="143" y="21" width="2" height="8" fill="#000000" />
<rect x="169" y="21" width="7" height="6" fill="#FFFFFF" />
<rect x="207" y="21" width="2" height="6" fill="#FFFFFF" />
<rect x="271" y="22" width="2" height="5" fill="#FFFFFF" />
<rect x="297" y="22" width="7" height="5" fill="#FFFFFF" />
<rect x="9" y="27" width="14" height="2" fill="#000000" />
<rect x="45" y="27" width="6" height="2" fill="#000000" />
<rect x="73" y="27" width="14" height="2" fill="#000000" />
<rect x="105" y="27" width="14" height="2" fill="#000000" />
<rect x="145" y="27" width="6" height="2" fill="#000000" />
<rect x="169" y="27" width="14" height="2" fill="#000000" />
<rect x="201" y="27" width="14" height="2" fill="#000000" />
<rect x="241" y="27" width="6" height="2" fill="#000000" />
<rect x="265" y="27" width="14" height="2" fill="#000000" />
<rect x="297" y="27" width="14" height="2" fill="#000000" />
</svg>